<?xml version="1.0" standalone="no"?>
<!DOCTYPE svg PUBLIC "-//W3C//DTD SVG 20010904//EN"
 "http://www.w3.org/TR/2001/REC-SVG-20010904/DTD/svg10.dtd">
<svg version="1.0" xmlns="http://www.w3.org/2000/svg"
 width="512.000000pt" height="512.000000pt" viewBox="0 0 512.000000 512.000000"
 preserveAspectRatio="xMidYMid meet">

<g transform="translate(0.000000,512.000000) scale(0.100000,-0.100000)" stroke="none">
<path d="M2493 5094 c-42 -43 -30 -77 112 -316 70 -117 138 -223 152 -235 50
-47 134 -16 147 54 4 27 -13 61 -130 260 -75 125 -145 236 -156 246 -31 27
-93 22 -125 -9z"/>
<path d="M3148 5097 c-143 -61 -213 -174 -212 -342 0 -111 18 -160 66 -179 85
-36 227 -27 318 19 57 29 125 102 153 163 27 60 35 217 15 276 -22 66 -52 80
-176 84 -94 2 -114 0 -164 -21z m172 -192 c0 -96 -85 -175 -189 -175 -22 0
-23 3 -19 43 11 100 78 167 166 167 41 0 42 0 42 -35z"/>
<path d="M2402 4420 c-139 -37 -255 -120 -339 -242 -71 -105 -94 -183 -101
-332 -11 -272 57 -572 162 -713 57 -76 98 -114 171 -158 138 -82 281 -97 437
-45 l90 30 67 -27 c60 -25 77 -28 186 -28 113 0 124 2 196 33 147 63 231 157
300 336 83 216 123 529 88 698 -20 96 -83 212 -157 287 -115 117 -233 170
-397 178 -94 5 -105 4 -190 -26 -50 -18 -94 -32 -100 -32 -5 0 -48 14 -95 30
-103 37 -205 40 -318 11z m312 -204 c90 -41 125 -44 171 -16 49 30 143 60 189
60 53 0 144 -24 198 -51 91 -47 177 -159 208 -272 29 -107 -4 -386 -65 -557
-58 -161 -102 -218 -201 -265 -107 -51 -214 -44 -327 21 -57 32 -79 30 -167
-13 -68 -34 -83 -38 -155 -38 -66 0 -90 5 -136 26 -160 75 -239 224 -279 522
-31 239 3 391 115 502 126 126 289 155 449 81z"/>
<path d="M717 2729 c-84 -17 -150 -69 -186 -149 -19 -41 -21 -65 -21 -266 0
-216 0 -221 22 -241 33 -29 57 -35 95 -22 56 18 63 49 63 263 0 181 1 185 24
213 24 28 25 28 165 31 l141 4 0 -230 c0 -213 1 -231 20 -254 11 -14 32 -28
47 -31 39 -7 91 17 103 48 6 15 10 125 10 246 l0 219 1105 0 1105 0 0 -229 c0
-212 1 -230 20 -253 23 -30 62 -40 102 -26 53 19 58 45 58 288 l0 220 420 0
420 0 0 -215 c0 -248 6 -276 63 -294 38 -13 62 -7 95 22 22 20 22 24 22 255
l0 234 139 -4 c131 -3 141 -4 165 -27 l26 -24 0 -314 0 -313 -139 0 c-133 0
-141 -1 -168 -24 l-28 -24 -3 -401 -3 -401 -44 0 c-61 0 -91 -14 -110 -50 -21
-40 -12 -83 22 -110 23 -18 41 -20 164 -20 l139 0 0 -313 0 -314 -23 -21 -23
-22 -1337 0 -1337 0 0 228 c0 224 0 229 -22 249 -33 29 -57 35 -95 22 -57 -18
-63 -47 -63 -289 l0 -210 -80 0 -80 0 0 224 c0 209 -1 225 -20 249 -40 50
-128 39 -150 -19 -6 -14 -10 -122 -10 -240 l0 -214 -80 0 -80 0 0 224 c0 223
0 225 -24 253 -34 39 -98 39 -132 0 -24 -28 -24 -30 -24 -253 l0 -224 -398 0
-399 0 -21 23 c-21 22 -22 32 -22 210 0 217 -7 248 -63 266 -24 8 -42 9 -62 1
-53 -20 -54 -28 -54 -265 -1 -200 1 -224 20 -265 24 -54 50 -83 104 -119 l40
-26 2225 0 2225 0 40 26 c54 36 80 65 104 119 19 43 21 64 21 398 0 384 -2
398 -56 441 -15 12 -48 27 -71 34 l-43 11 0 333 0 333 103 0 c87 0 110 3 147
23 87 44 85 30 88 438 2 228 -1 373 -8 398 -13 51 -89 134 -142 157 -41 18
-118 19 -2123 20 -1252 1 -2099 -2 -2128 -7z"/>
<path d="M150 1859 c-54 -24 -83 -50 -119 -104 l-26 -40 -3 -335 -3 -335 28
-55 c31 -61 92 -113 151 -130 25 -6 557 -10 1609 -10 l1572 0 28 24 c36 31 39
95 5 128 l-23 23 -489 3 -490 3 0 334 0 335 595 0 595 0 0 -655 0 -656 25 -24
c44 -45 84 -35 210 48 l110 74 110 -74 c126 -83 166 -93 210 -48 l25 24 0 654
0 655 60 4 c45 3 66 10 85 28 35 33 34 88 -1 124 l-27 26 -2096 0 c-2088 0
-2096 -1 -2141 -21z m700 -494 l0 -335 -310 0 -311 0 -24 25 -25 24 0 290 0
290 26 20 c26 20 38 21 335 21 l309 0 0 -335z m1360 0 l0 -335 -590 0 -590 0
0 335 0 335 590 0 590 0 0 -335z m1880 -216 c0 -437 -3 -549 -12 -543 -7 5
-40 25 -72 46 -33 21 -69 38 -81 38 -12 0 -48 -17 -81 -38 -32 -21 -65 -41
-71 -46 -10 -6 -13 106 -13 543 l0 551 165 0 165 0 0 -551z"/>
<path d="M1389 1511 c-29 -29 -29 -31 -29 -146 0 -115 0 -117 29 -146 31 -31
64 -36 104 -18 38 17 47 50 47 164 0 114 -9 147 -47 164 -40 18 -73 13 -104
-18z"/>
<path d="M1733 1516 c-28 -24 -28 -25 -28 -151 0 -126 0 -127 28 -151 31 -26
66 -31 100 -12 42 22 46 38 47 164 0 118 -1 122 -26 148 -35 34 -83 35 -121 2z"/>
</g>
</svg>
