<svg xmlns="http://www.w3.org/2000/svg" viewBox="0 0 245 240"><path fill="#5865F2" d="M104.4 104.5c-5.7 0-10.2 5-10.2 11.1s4.6 11.1 10.2 11.1c5.7 0 10.2-5 10.2-11.1.1-6.1-4.5-11.1-10.2-11.1zm36.2 0c-5.7 0-10.2 5-10.2 11.1s4.6 11.1 10.2 11.1c5.7 0 10.2-5 10.2-11.1s-4.5-11.1-10.2-11.1z"/><path fill="#5865F2" d="M189.5 20h-134C38.9 20 25 33.9 25 50.5v139c0 16.6 13.9 30.5 30.5 30.5h113.4l-5.3-18.5 12.8 11.9 12.1 11.3 21.6 19.8V50.5C210 33.9 196.1 20 179.5 20zm-39.6 135s-3.7-4.4-6.7-8.3c13.3-3.8 18.4-12.1 18.4-12.1-4.2 2.8-8.2 4.8-11.7 6.1-5.1 2.1-10 3.5-14.8 4.3-9.8 1.8-18.8 1.3-26.4-.1-5.8-1.1-10.8-2.7-15-4.3-2.3-.9-4.8-2-7.3-3.5-.3-.2-.6-.3-.9-.5-.2-.1-.3-.2-.4-.2-.2-.1-.3-.2-.4-.3-1.8-1-2.8-1.7-2.8-1.7s4.9 8.1 17.9 12c-3 3.9-6.8 8.5-6.8 8.5-22.5-.7-31-15.5-31-15.5 0-32.9 14.7-59.6 14.7-59.6 14.7-11 28.6-10.7 28.6-10.7l1 1.2c-18.3 5.3-26.8 13.2-26.8 13.2s2.2-1.2 5.9-2.9c10.7-4.7 19.2-6 22.7-6.3.6-.1 1.1-.2 1.7-.2 6.1-.8 13-1 20.2-.2 9.5 1.1 19.7 3.9 30.1 9.7 0 0-8.1-7.7-25.5-13l1.4-1.6s13.9-.3 28.6 10.7c0 0 14.7 26.7 14.7 59.6 0 0-8.6 14.8-31.1 15.5z"/></svg>
