<svg xmlns="http://www.w3.org/2000/svg" viewBox="0 0 24 24"><path fill="#E1306C" d="M12 2.2c3.2 0 3.6 0 4.9.1 1.2.1 1.9.2 2.3.4.6.2 1 .4 1.5.9.5.5.7.9.9 1.5.2.4.3 1.1.4 2.3.1 1.3.1 1.7.1 4.9s0 3.6-.1 4.9c-.1 1.2-.2 1.9-.4 2.3-.2.6-.4 1-.9 1.5-.5.5-.9.7-1.5.9-.4.2-1.1.3-2.3.4-1.3.1-1.7.1-4.9.1s-3.6 0-4.9-.1c-1.2-.1-1.9-.2-2.3-.4-.6-.2-1-.4-1.5-.9-.5-.5-.7-.9-.9-1.5-.2-.4-.3-1.1-.4-2.3C2.2 15.6 2.2 15.2 2.2 12s0-3.6.1-4.9c.1-1.2.2-1.9.4-2.3.2-.6.4-1 .9-1.5.5-.5.9-.7 1.5-.9.4-.2 1.1-.3 2.3-.4C8.4 2.2 8.8 2.2 12 2.2m0-2.2C8.7 0 8.3 0 7 0 5.7 0 4.9.1 4.2.2 3.5.4 2.9.6 2.3 1.1 1.8 1.6 1.6 2 1.4 2.6 1.1 3.3 1 4.1.9 4.8.8 6.1.8 6.5.8 12s0 5.9.1 7.2c.1.7.2 1.5.5 2.2.2.6.4 1 .9 1.5.6.5 1 .7 1.5.9.7.3 1.5.4 2.2.5C8.3 24 8.7 24 12 24s3.7 0 5-.1c.7-.1 1.5-.2 2.2-.5.6-.2 1-.4 1.5-.9.5-.5.7-.9.9-1.5.3-.7.4-1.5.5-2.2.1-1.3.1-1.7.1-5s0-3.7-.1-5c-.1-.7-.2-1.5-.5-2.2-.2-.6-.4-1-.9-1.5-.5-.5-.9-.7-1.5-.9-.7-.3-1.5-.4-2.2-.5C15.7 0 15.3 0 12 0z"/><path fill="#E1306C" d="M12 5.8a6.2 6.2 0 100 12.4A6.2 6.2 0 0012 5.8zm0 10.2a4 4 0 110-8 4 4 0 010 8zm6.4-11.6a1.4 1.4 0 11-2.8 0 1.4 1.4 0 012.8 0z"/></svg>
