<?xml version="1.0" standalone="no"?>
<!DOCTYPE svg PUBLIC "-//W3C//DTD SVG 20010904//EN"
 "http://www.w3.org/TR/2001/REC-SVG-20010904/DTD/svg10.dtd">
<svg version="1.0" xmlns="http://www.w3.org/2000/svg"
 width="512.000000pt" height="512.000000pt" viewBox="0 0 512.000000 512.000000"
 preserveAspectRatio="xMidYMid meet">

<g transform="translate(0.000000,512.000000) scale(0.100000,-0.100000)"
stroke="none">
<path d="M2512 5113 c-7 -3 -19 -18 -27 -33 -12 -24 -15 -87 -15 -352 l0 -323
-633 -380 c-612 -368 -632 -381 -641 -416 -13 -51 9 -91 57 -106 33 -11 43
-10 75 6 20 10 304 179 630 375 327 196 597 356 602 356 5 0 287 -167 627
-371 520 -312 624 -371 656 -372 45 0 74 24 82 67 14 69 27 60 -644 463 l-631
378 0 267 0 268 210 0 210 0 0 -80 0 -80 -145 0 c-142 0 -147 -1 -170 -25 -35
-34 -34 -93 1 -126 25 -23 31 -24 207 -27 216 -4 252 3 273 53 17 42 20 368 4
411 -21 54 -19 53 -380 53 -184 0 -341 -3 -348 -6z"/>
<path d="M1923 3580 c-50 -20 -54 -48 -51 -350 l3 -278 24 -26 24 -26 209 0
c208 0 209 0 233 25 l25 24 0 293 c-1 308 -1 312 -47 336 -26 14 -386 16 -420
2z m287 -335 l0 -165 -80 0 -80 0 0 165 0 165 80 0 80 0 0 -165z"/>
<path d="M2775 3578 c-44 -25 -44 -30 -45 -336 l0 -293 25 -24 c24 -25 25 -25
233 -25 l209 0 24 26 24 26 3 278 c3 305 -1 330 -54 350 -37 14 -394 12 -419
-2z m295 -333 l0 -165 -80 0 -80 0 0 165 0 165 80 0 80 0 0 -165z"/>
<path d="M3634 3410 c-12 -5 -29 -19 -38 -32 -14 -20 -16 -146 -16 -1334 l0
-1311 26 -27 c48 -48 134 -27 149 37 3 12 4 608 3 1324 -3 1288 -3 1303 -23
1322 -24 24 -71 34 -101 21z"/>
<path d="M1399 3317 c-9 -7 -21 -22 -27 -34 -17 -31 -17 -2525 0 -2556 29 -54
98 -64 142 -21 l26 27 0 1272 0 1272 -26 27 c-29 29 -86 35 -115 13z"/>
<path d="M51 3239 c-51 -20 -50 -8 -51 -552 l0 -508 25 -24 c26 -27 72 -33
107 -14 44 24 48 57 48 419 l0 340 483 0 c472 0 484 0 505 20 47 44 38 114
-19 142 -31 16 -76 18 -501 18 l-468 0 0 33 c0 66 -19 108 -55 123 -39 16 -41
16 -74 3z"/>
<path d="M4993 3235 c-34 -14 -53 -58 -53 -122 l0 -33 -467 0 c-426 0 -471 -2
-502 -18 -57 -28 -66 -98 -19 -142 21 -20 33 -20 505 -20 l483 0 2 -1424 3
-1424 24 -26 c33 -35 98 -36 129 -3 l22 23 0 1575 c-1 1700 3 1597 -54 1619
-34 12 -34 12 -73 -5z"/>
<path d="M535 2535 c-24 -23 -25 -30 -25 -143 0 -133 12 -164 67 -175 68 -13
113 37 113 124 l0 39 80 0 80 0 0 -224 c0 -209 1 -225 20 -249 40 -50 128 -39
150 19 6 14 10 147 10 295 0 282 -5 317 -45 333 -9 3 -109 6 -221 6 -204 0
-205 0 -229 -25z"/>
<path d="M1908 2546 c-33 -25 -38 -65 -38 -327 0 -293 5 -318 60 -338 42 -14
369 -15 406 -1 53 21 53 22 54 341 l0 296 -23 21 c-22 21 -31 22 -233 22 -156
-1 -213 -4 -226 -14z m302 -331 l0 -165 -80 0 -80 0 0 165 0 165 80 0 80 0 0
-165z"/>
<path d="M2752 2537 c-22 -23 -22 -29 -22 -318 1 -317 1 -318 54 -339 37 -14
364 -13 406 1 55 20 60 45 60 338 0 155 -4 271 -10 287 -20 51 -29 53 -256 54
-207 0 -211 0 -232 -23z m318 -322 l0 -165 -80 0 -80 0 0 165 0 165 80 0 80 0
0 -165z"/>
<path d="M4140 2467 c-47 -24 -50 -43 -50 -335 0 -278 3 -301 39 -329 11 -9
76 -12 224 -13 208 0 208 0 232 25 l25 24 0 293 c-1 308 -1 312 -47 336 -31
17 -389 16 -423 -1z m290 -332 l0 -165 -80 0 -80 0 0 165 0 165 80 0 80 0 0
-165z"/>
<path d="M342 2037 c-43 -14 -112 -75 -150 -134 -111 -174 -185 -526 -186
-883 l-1 -196 38 -76 c54 -110 161 -200 264 -223 l33 -7 0 -232 c0 -221 1
-235 21 -260 29 -37 95 -37 130 0 24 25 24 28 27 260 2 185 6 234 16 234 7 0
45 16 83 35 126 63 208 173 233 314 20 111 -18 526 -66 716 -60 238 -152 397
-259 446 -44 21 -130 23 -183 6z m131 -188 c88 -68 173 -397 197 -754 9 -145
9 -177 -4 -218 -72 -237 -384 -251 -471 -23 -16 41 -17 68 -12 209 13 346 92
672 190 775 36 37 64 40 100 11z"/>
<path d="M1733 1516 c-22 -19 -28 -32 -28 -65 0 -60 28 -84 105 -89 l60 -4 0
-419 0 -418 -401 -3 -401 -3 -24 -28 c-32 -37 -32 -86 1 -121 l24 -26 1491 0
1491 0 24 26 c33 35 33 84 1 121 l-24 28 -401 3 -401 3 0 418 0 419 60 4 c77
5 105 29 105 89 0 33 -6 46 -28 65 l-28 24 -799 0 -799 0 -28 -24z m737 -319
l0 -163 -35 -17 c-65 -31 -63 -126 3 -157 l32 -15 0 -162 0 -163 -210 0 -210
0 0 420 0 420 210 0 210 0 0 -163z m600 -257 l0 -420 -210 0 -210 0 0 163 0
162 32 15 c66 31 68 126 3 157 l-35 17 0 163 0 163 210 0 210 0 0 -420z"/>
<path d="M4153 1449 c-60 -18 -63 -36 -63 -339 0 -308 3 -321 68 -340 23 -7
105 -10 219 -8 176 3 182 4 207 27 l26 24 0 293 0 293 -24 28 -24 28 -189 2
c-103 1 -203 -2 -220 -8z m277 -339 l0 -170 -80 0 -80 0 0 170 0 170 80 0 80
0 0 -170z"/>
<path d="M743 173 c-59 -12 -83 -104 -38 -148 l24 -25 1831 0 1831 0 24 25
c33 32 33 84 1 122 l-24 28 -1814 1 c-997 1 -1823 -1 -1835 -3z"/>
</g>
</svg>
