<?xml version="1.0" encoding="UTF-8"?>
<!-- Uploaded to: SVG Find, www.svgrepo.com, Generator: SVG Find Mixer Tools -->
<svg width="800px" height="800px" version="1.1" viewBox="144 144 512 512" xmlns="http://www.w3.org/2000/svg">
 <defs>
  <clipPath id="a">
   <path d="m148.09 148.09h503.81v503.81h-503.81z"/>
  </clipPath>
 </defs>
 <g clip-path="url(#a)">
  <path d="m649.6 405.56-70.848 70.848v0.003906c-1.4766 1.4766-3.4805 2.3047-5.5664 2.3047-2.0898 0-4.0898-0.82812-5.5664-2.3047l-23.617-23.617c-1.4766-1.4766-2.3047-3.4766-2.3047-5.5664 0-2.0859 0.82813-4.0898 2.3047-5.5664l18.051-18.051h-130.56c-4.3477 0-7.875-3.5234-7.875-7.8711v-31.488c0-4.3477 3.5273-7.8711 7.875-7.8711h130.56l-18.051-18.051c-1.4766-1.4766-2.3047-3.4766-2.3047-5.5664 0-2.0859 0.82813-4.0898 2.3047-5.5664l23.617-23.617v0.003907c1.4766-1.4766 3.4766-2.3086 5.5664-2.3086 2.0859 0 4.0898 0.83203 5.5664 2.3086l70.848 70.848c1.4766 1.4766 2.3047 3.4766 2.3047 5.5664 0 2.0859-0.82812 4.0898-2.3047 5.5625zm-241.73 10.18v-31.488c0.019531-6.2578 2.5117-12.254 6.9375-16.68 4.4258-4.4219 10.422-6.918 16.68-6.9375h78.719v-157.44c-0.011719-4.3438-3.5312-7.8594-7.8711-7.875h-149.57v409.35h149.57c4.3398-0.011719 7.8594-3.5312 7.8711-7.8711v-157.44h-78.719c-6.2578-0.019531-12.254-2.5117-16.68-6.9375-4.4258-4.4258-6.918-10.422-6.9375-16.68zm-125.95-23.617c-3.1836 0-6.0547 1.918-7.2734 4.8594s-0.54297 6.3281 1.707 8.582c2.25 2.25 5.6367 2.9219 8.5781 1.7031 2.9414-1.2148 4.8594-4.0859 4.8594-7.2695-0.003906-4.3477-3.5234-7.8711-7.8711-7.875zm55.105-236.16v488.07c0 2.5273-1.2109 4.9023-3.2617 6.3828-2.0469 1.4805-4.6797 1.8867-7.0781 1.0938l-173.18-57.203-0.003906 0.003906c-3.2266-1.0664-5.4023-4.082-5.4023-7.4805v-373.66c0-3.3984 2.1758-6.4141 5.4023-7.4766l173.18-57.203h0.003906c2.3984-0.79297 5.0312-0.38672 7.0781 1.0977 2.0508 1.4805 3.2617 3.8516 3.2617 6.3789zm-31.488 244.04c0-6.2656-2.4883-12.273-6.918-16.699-4.4297-4.4297-10.438-6.918-16.699-6.918s-12.27 2.4883-16.699 6.918c-4.4297 4.4258-6.918 10.434-6.918 16.699 0 6.2617 2.4883 12.27 6.918 16.699 4.4297 4.4258 10.438 6.9141 16.699 6.9141 6.2617-0.003906 12.266-2.4961 16.691-6.9219 4.4258-4.4297 6.918-10.43 6.9258-16.691z"/>
 </g>
</svg>