<?xml version="1.0" encoding="utf-8"?>
<!-- Generator: Adobe Illustrator 19.0.0, SVG Export Plug-In . SVG Version: 6.00 Build 0)  -->
<svg version="1.1" id="Capa_1" xmlns="http://www.w3.org/2000/svg" xmlns:xlink="http://www.w3.org/1999/xlink" x="0px" y="0px"
	 viewBox="-260 352 90 90" style="enable-background:new -260 352 90 90;" xml:space="preserve">
<style type="text/css">
	.st0{fill:#118FF2;}
</style>
<g>
	<path id="vCard" class="st0" d="M-173.3,423.9c0-3.8-2.7-3.9-5.9-5.2l-15-6c-0.3-0.1-0.5-0.2-0.8-0.3v0c-2.7-1.2-5-2.9-5.9-4.1l0,0
		l0,0c0-0.1-0.1-0.2-0.1-0.2l0-0.1l0,0l0,0v0c-0.4-0.6-0.8-0.9-1.1-0.8l0,0l0,0l0,0l0,0l0,0l0,0c-0.4,0.2-0.3,0-0.5-0.5
		c-0.4-1.1-1.1-3.2-1.2-3.5c-0.2-0.6-0.6,0.9-0.5-0.7l0.2-2.9c0.3-0.3,0.5-0.5,0.7-0.7c1-1.1,1-4.1,1.5-4.8c0.5-0.7,1.5-0.9,2.4-4.2
		c1-3.4,2.2-8.1,0.9-8.2c-0.3,0-0.7,0.2-1,0.5c0.2-1.2,0.7-4,0.8-6.1c0.1-2.7-0.3-9.7-1.9-12.2c-1-1.6-2.9-3.2-4.9-4.4
		c-1.2-0.7-2.3-1.4-3.3-1.8c-2.8-1.3-11.7-0.7-14.8,0c-3.4,0.8-5.8,2.9-7.4,5.5c-1.5,2.6-2.2,10.2-2.1,12.9c0.1,1.2,0.8,3.3,1,4.5
		c0.1,0.7,0.2,0.7,0.3,1.1c-0.1,0-0.3-0.1-0.4-0.1c-1.3,0.1-0.1,4.9,0.9,8.2c1,3.4,2,3.5,2.4,4.2c0.5,0.7,0.6,3.7,1.5,4.8
		c0.2,0.2,0.4,0.4,0.7,0.7l0.2,2.3l0.3,1.3c-0.2-0.4-0.4-0.6-0.6-0.1c-0.4,1.3-0.8,2.6-1.3,3.8c0-0.1-0.1-0.1-0.2-0.1
		c-0.4-0.4-1,0-1.5,0.8c-0.7,1.2-3.2,3-6,4.3l0,0.2l0,0.2l0,0.1c-0.2,0.1-0.4,0.2-0.7,0.3l-15,6c-3.2,1.3-5.9,1.4-5.9,5.2L-260,437
		h90L-173.3,423.9z"/>
</g>
</svg>
