<?xml version="1.0" encoding="iso-8859-1"?>
<!-- Generator: Adobe Illustrator 19.0.0, SVG Export Plug-In . SVG Version: 6.00 Build 0)  -->
<svg version="1.1" id="Layer_1" xmlns="http://www.w3.org/2000/svg" xmlns:xlink="http://www.w3.org/1999/xlink" x="0px" y="0px"
	 viewBox="0 0 511.999 511.999" style="enable-background:new 0 0 511.999 511.999;" xml:space="preserve">
<g>
	<g>
		<path d="M430.307,92.63H281.029v-52.19c0-5.633-4.566-10.199-10.199-10.199H34.569c-5.633,0-10.199,4.566-10.199,10.199v138.074
			c0,5.633,4.566,10.199,10.199,10.199h140.66v34.803c0,4.125,2.486,7.844,6.296,9.423c1.262,0.523,2.587,0.777,3.901,0.777
			c2.654,0,5.263-1.037,7.214-2.987l42.015-42.015h8.589v17.478c0,5.633,4.566,10.199,10.199,10.199h26.018l30.701,30.702
			c1.952,1.951,4.56,2.987,7.214,2.987c1.314,0,2.64-0.255,3.901-0.777c3.811-1.579,6.296-5.297,6.296-9.423v-23.49h102.734
			c5.633,0,10.199-4.566,10.199-10.199V102.829C440.507,97.196,435.941,92.63,430.307,92.63z M260.63,168.314H230.43v0.001
			c-2.705,0-5.299,1.075-7.212,2.987l-27.591,27.591v-20.379c0-5.633-4.566-10.199-10.199-10.199H44.768V50.639H260.63V168.314z
			 M420.108,195.993H317.374c-5.633,0-10.199,4.566-10.199,10.199v9.066l-16.277-16.278c-1.912-1.912-4.507-2.987-7.212-2.987
			h-20.043v-7.279h7.186c5.633,0,10.199-4.566,10.199-10.199v-65.486h139.08V195.993z"/>
	</g>
</g>
<g>
	<g>
		<path d="M393.608,128.616h-85.959c-5.633,0-10.199,4.566-10.199,10.199s4.566,10.199,10.199,10.199h85.959
			c5.633,0,10.199-4.566,10.199-10.199S399.241,128.616,393.608,128.616z"/>
	</g>
</g>
<g>
	<g>
		<path d="M393.608,159.242h-85.959c-5.633,0-10.199,4.566-10.199,10.199s4.566,10.199,10.199,10.199h85.959
			c5.633,0,10.199-4.566,10.199-10.199S399.241,159.242,393.608,159.242z"/>
	</g>
</g>
<g>
	<g>
		<path d="M158.55,245.93c-7.239-7.726-17.463-12.157-28.05-12.157h-25.995c-10.587,0-20.81,4.432-28.049,12.157
			c-7.239,7.726-10.996,18.216-10.306,28.781l1.156,17.715l2.696,41.369c1.064,16.303,10.245,30.737,24.561,38.61
			c7.182,3.951,15.06,5.926,22.94,5.926c7.878,0,15.759-1.976,22.939-5.926c14.316-7.873,23.497-22.308,24.561-38.61l3.083-47.272
			v-0.001l0.77-11.811C169.543,264.147,165.788,253.656,158.55,245.93z M86.504,273.383c-0.328-5.03,1.389-9.827,4.836-13.507
			c3.447-3.679,8.122-5.705,13.164-5.705h19.444l-3.805,10.147c-1.341,1.919-9.789,12.567-33.173,16.218L86.504,273.383z
			 M144.646,332.467c-0.608,9.317-5.854,17.565-14.035,22.065c-8.209,4.515-18.01,4.515-26.219,0
			c-8.181-4.5-13.427-12.748-14.035-22.065l-2.054-31.503c19.356-2.663,31.783-9.313,39.425-15.428
			c1.496,1.093,3.178,2.122,5.044,3.085c3.284,1.697,8.04,3.379,14.402,5.094L144.646,332.467z M142.134,270.499
			c-0.892-0.461-1.564-0.871-2.068-1.215l3.546-9.457c0.016,0.017,0.035,0.032,0.051,0.049c3.334,3.559,5.051,8.163,4.862,13.014
			C144.966,271.801,143.089,270.992,142.134,270.499z"/>
	</g>
</g>
<g>
	<g>
		<path d="M234.842,469.741l-4.306-23.763c-5.271-29.095-28.321-52.317-57.357-57.785c-4.386-0.826-8.869-1.244-13.325-1.244
			h-12.965c-2.705,0-5.299,1.075-7.212,2.987l-22.173,22.174l-22.175-22.175c-1.912-1.912-4.507-2.987-7.212-2.987H75.151
			c-4.457,0-8.94,0.419-13.324,1.244c-29.036,5.467-52.087,28.688-57.358,57.785l-4.305,23.764c-0.539,2.975,0.27,6.035,2.208,8.355
			c1.938,2.32,4.805,3.661,7.828,3.661h214.607c3.023,0,5.89-1.341,7.828-3.661S235.38,472.715,234.842,469.741z M22.411,461.362
			v-0.001l2.128-11.746c3.775-20.834,20.276-37.461,41.061-41.374c3.143-0.592,6.357-0.892,9.551-0.892h8.741l26.399,26.399
			c1.912,1.912,4.507,2.987,7.212,2.987s5.299-1.075,7.212-2.987l26.398-26.399h8.741c3.193,0,6.407,0.3,9.551,0.892
			c20.785,3.913,37.286,20.541,41.061,41.374l2.128,11.747H22.411z"/>
	</g>
</g>
<g>
	<g>
		<path d="M435.544,245.929c-7.239-7.725-17.462-12.156-28.05-12.156h-25.995c-10.588,0-20.811,4.432-28.05,12.157
			c-7.238,7.727-10.995,18.217-10.305,28.781l1.156,17.715l2.698,41.369c1.064,16.303,10.245,30.737,24.561,38.61
			c7.182,3.951,15.06,5.926,22.94,5.926c7.878,0,15.759-1.976,22.939-5.926c14.316-7.873,23.497-22.308,24.561-38.61l3.082-47.272
			l0.77-11.812C446.538,264.146,442.782,253.655,435.544,245.929z M363.499,273.383c-0.327-5.03,1.39-9.827,4.836-13.507
			c3.447-3.679,8.123-5.705,13.164-5.705h19.444l-3.805,10.147c-1.341,1.919-9.789,12.567-33.173,16.218L363.499,273.383z
			 M421.64,332.467c-0.606,9.317-5.852,17.565-14.034,22.065c-8.209,4.515-18.01,4.515-26.219,0
			c-8.181-4.5-13.427-12.748-14.035-22.065l-2.054-31.503c19.356-2.663,31.783-9.313,39.425-15.428
			c1.496,1.093,3.178,2.122,5.042,3.085c3.284,1.696,8.039,3.378,14.402,5.094L421.64,332.467z M419.129,270.499
			c-0.892-0.461-1.563-0.871-2.068-1.215l3.546-9.457c0.016,0.017,0.034,0.032,0.05,0.048c3.334,3.56,5.051,8.164,4.863,13.015
			C421.961,271.801,420.085,270.992,419.129,270.499z"/>
	</g>
</g>
<g>
	<g>
		<path d="M511.836,469.741l-4.305-23.764c-5.271-29.095-28.322-52.317-57.358-57.784c-4.386-0.826-8.868-1.244-13.325-1.244
			h-12.965c-2.705,0-5.299,1.075-7.212,2.987l-22.174,22.174l-22.173-22.174c-1.912-1.912-4.507-2.987-7.212-2.987h-12.965
			c-4.457,0-8.941,0.419-13.325,1.244c-29.036,5.467-52.086,28.688-57.357,57.785l-4.305,23.764
			c-0.539,2.975,0.27,6.035,2.208,8.355c1.938,2.32,4.805,3.661,7.828,3.661H501.8c3.023,0,5.89-1.341,7.828-3.661
			C511.566,475.776,512.374,472.716,511.836,469.741z M299.407,461.362v-0.001l2.128-11.746
			c3.775-20.834,20.275-37.461,41.061-41.374c3.144-0.592,6.357-0.892,9.551-0.892h8.741l26.398,26.399
			c1.912,1.912,4.507,2.987,7.212,2.987s5.299-1.075,7.212-2.987l26.399-26.399h8.741c3.193,0,6.407,0.3,9.551,0.892
			c20.785,3.913,37.287,20.541,41.061,41.374l2.128,11.747H299.407z"/>
	</g>
</g>
<g>
	<g>
		<path d="M227.873,78.311h-6.137c-5.633,0-10.199,4.566-10.199,10.199c0,5.633,4.566,10.199,10.199,10.199h6.137
			c5.633,0,10.199-4.566,10.199-10.199C238.072,82.877,233.506,78.311,227.873,78.311z"/>
	</g>
</g>
<g>
	<g>
		<path d="M185.94,78.311H77.525c-5.633,0-10.199,4.566-10.199,10.199c0,5.633,4.566,10.199,10.199,10.199H185.94
			c5.633,0,10.199-4.566,10.199-10.199C196.139,82.877,191.573,78.311,185.94,78.311z"/>
	</g>
</g>
<g>
	<g>
		<path d="M227.873,119.222H77.525c-5.633,0-10.199,4.566-10.199,10.199c0,5.633,4.566,10.199,10.199,10.199h150.347
			c5.633,0,10.199-4.566,10.199-10.199C238.072,123.788,233.506,119.222,227.873,119.222z"/>
	</g>
</g>
<g>
</g>
<g>
</g>
<g>
</g>
<g>
</g>
<g>
</g>
<g>
</g>
<g>
</g>
<g>
</g>
<g>
</g>
<g>
</g>
<g>
</g>
<g>
</g>
<g>
</g>
<g>
</g>
<g>
</g>
</svg>
