<?xml version="1.0" standalone="no"?>
<!DOCTYPE svg PUBLIC "-//W3C//DTD SVG 20010904//EN"
 "http://www.w3.org/TR/2001/REC-SVG-20010904/DTD/svg10.dtd">
<svg version="1.0" xmlns="http://www.w3.org/2000/svg"
 width="512.000000pt" height="512.000000pt" viewBox="0 0 512.000000 512.000000"
 preserveAspectRatio="xMidYMid meet">

<g transform="translate(0.000000,512.000000) scale(0.100000,-0.100000)"
fill="#ffffff" stroke="none">
<path d="M2330 4060 c-115 -17 -204 -64 -281 -148 -67 -73 -106 -157 -118
-252 -13 -99 40 -898 64 -980 28 -92 76 -171 150 -246 201 -202 510 -230 748
-68 114 78 196 196 231 330 16 63 66 736 66 889 0 216 -118 385 -318 457 -49
18 -85 21 -272 23 -118 2 -240 0 -270 -5z m334 -232 c-41 -132 -83 -192 -174
-250 -62 -40 -181 -84 -274 -101 l-78 -15 4 106 c3 94 6 112 30 153 15 25 43
58 63 73 62 47 97 55 273 55 l163 1 -7 -22z m288 -122 c11 -21 22 -63 25 -93
l6 -54 -29 7 c-31 8 -101 37 -122 52 -10 7 -6 26 19 91 l31 82 25 -23 c14 -13
34 -40 45 -62z m-199 -291 c37 -19 98 -43 137 -55 l70 -21 0 -38 c0 -52 -28
-466 -35 -518 -9 -62 -59 -155 -109 -201 -174 -160 -417 -137 -563 54 -47 62
-61 129 -78 359 -8 120 -15 226 -15 235 0 14 19 21 93 35 148 28 294 87 382
153 22 17 43 31 46 31 3 1 36 -15 72 -34z"/>
<path d="M898 3776 c-156 -44 -257 -175 -266 -341 -5 -90 23 -553 39 -657 57
-362 498 -508 774 -257 67 62 121 165 136 259 17 113 45 611 38 680 -4 36 -17
86 -28 112 -33 72 -110 150 -183 184 -62 29 -65 29 -263 31 -142 1 -214 -2
-247 -11z m266 -218 c-16 -53 -24 -66 -58 -96 -45 -39 -113 -74 -185 -96 -79
-23 -81 -23 -81 29 0 57 19 104 56 139 39 36 72 44 182 45 92 1 93 1 86 -21z
m234 -83 c15 -33 15 -45 0 -45 -27 0 -41 18 -34 44 8 33 20 33 34 1z m-120
-229 c26 -13 62 -27 79 -31 18 -3 35 -10 37 -14 3 -4 -1 -94 -9 -201 -15 -227
-25 -260 -95 -323 -79 -71 -174 -86 -265 -43 -107 50 -140 116 -155 307 -13
172 -13 189 3 193 6 2 41 11 77 19 91 21 170 53 222 87 23 16 47 30 51 30 4 0
29 -11 55 -24z"/>
<path d="M3765 3776 c-72 -23 -121 -54 -169 -107 -58 -64 -85 -125 -95 -209
-7 -69 21 -567 38 -680 15 -94 69 -197 136 -259 276 -251 717 -105 774 257 16
104 44 567 39 657 -9 169 -112 299 -270 341 -69 18 -395 18 -453 0z m275 -200
c0 -2 -8 -24 -19 -48 -30 -70 -110 -126 -230 -162 -80 -24 -81 -23 -81 34 0
85 44 148 119 170 27 9 211 13 211 6z m226 -101 c17 -42 17 -45 2 -45 -29 1
-40 17 -33 49 4 17 9 31 11 31 3 0 12 -16 20 -35z m-143 -219 c12 -8 47 -22
77 -32 30 -9 58 -20 61 -23 4 -3 0 -93 -7 -199 -18 -256 -43 -313 -159 -368
-93 -44 -187 -29 -267 44 -65 58 -79 101 -90 278 -6 84 -8 160 -5 167 3 8 26
18 51 21 70 11 174 49 241 89 69 42 69 42 98 23z"/>
<path d="M575 2314 c-146 -31 -306 -131 -399 -251 -83 -106 -119 -198 -157
-402 -27 -150 -26 -186 10 -222 l29 -29 531 0 531 0 -5 -22 c-17 -74 -35 -189
-35 -225 0 -33 7 -50 29 -75 l29 -33 1395 -3 c1105 -2 1403 0 1433 10 28 10
45 23 59 50 19 36 19 38 1 140 -9 57 -20 115 -23 131 l-5 27 532 0 532 0 29
29 c36 36 37 72 10 222 -29 155 -41 197 -79 275 -92 192 -277 336 -484 378
-101 21 -269 21 -312 1 -17 -8 -76 -60 -131 -115 l-99 -99 -111 109 c-130 126
-128 125 -304 117 -134 -6 -205 -23 -303 -72 l-69 -35 -180 0 c-137 0 -186 -3
-207 -14 -15 -8 -81 -69 -147 -135 l-119 -120 -137 134 -137 135 -185 0 -186
0 -69 35 c-98 49 -169 66 -303 72 -176 8 -174 9 -304 -117 l-111 -109 -99 99
c-55 55 -114 107 -131 115 -42 20 -223 19 -319 -1z m361 -334 l142 -140 48 0
47 0 142 140 c127 126 144 140 175 140 19 0 45 -3 57 -6 20 -6 15 -12 -45 -54
-130 -92 -246 -233 -308 -375 l-28 -65 -468 0 c-258 0 -468 3 -468 8 0 35 47
186 71 232 71 133 209 229 359 250 134 18 118 26 276 -130z m2869 0 l142 -140
47 0 48 0 144 141 143 141 78 -6 c141 -13 241 -57 330 -147 66 -66 107 -144
133 -250 11 -46 20 -87 20 -91 0 -5 -211 -8 -468 -8 l-468 0 -52 103 c-28 56
-76 132 -106 169 -62 74 -172 171 -225 196 -32 16 -33 17 -10 23 13 4 42 7 64
8 37 1 45 -5 180 -139z m-1462 -125 c166 -159 193 -177 249 -160 12 4 93 77
179 162 150 148 158 154 193 151 l36 -3 -220 -220 -220 -220 -223 223 c-214
214 -221 222 -189 222 30 0 53 -18 195 -155z m-173 -210 l336 -335 45 0 c25 0
55 8 70 18 14 9 166 160 339 335 172 174 320 317 328 317 9 0 58 -20 109 -45
151 -74 269 -198 334 -354 25 -60 69 -246 69 -292 0 -19 -30 -19 -1245 -19
l-1244 0 5 33 c23 126 57 256 84 311 56 119 150 222 272 301 30 19 137 64 153
65 5 0 161 -151 345 -335z"/>
<path d="M1513 1543 c-63 -12 -95 -96 -62 -160 24 -46 67 -55 241 -51 l160 3
29 33 c34 38 39 93 13 131 -30 42 -72 51 -221 50 -76 -1 -148 -4 -160 -6z"/>
<path d="M2063 1543 c-49 -10 -86 -72 -75 -128 18 -97 180 -111 218 -18 19 45
6 105 -29 127 -25 17 -82 26 -114 19z"/>
</g>
</svg>
