<?xml version="1.0" encoding="iso-8859-1"?>
<!-- Generator: Adobe Illustrator 18.0.0, SVG Export Plug-In . SVG Version: 6.00 Build 0)  -->
<!DOCTYPE svg PUBLIC "-//W3C//DTD SVG 1.1//EN" "http://www.w3.org/Graphics/SVG/1.1/DTD/svg11.dtd">
<svg version="1.1" id="Capa_1" xmlns="http://www.w3.org/2000/svg" xmlns:xlink="http://www.w3.org/1999/xlink" x="0px" y="0px"
	 viewBox="0 0 58 58" style="enable-background:new 0 0 58 58;" xml:space="preserve">
<g>
	<path d="M56.688,42.863l-1.444-0.277c-0.677-0.13-1.21-0.573-1.462-1.216c-0.253-0.642-0.163-1.329,0.245-1.885l0.907-1.236
		c0.292-0.398,0.25-0.95-0.1-1.299l-1.959-1.958c-0.339-0.339-0.871-0.388-1.268-0.121l-1.217,0.824
		c-0.571,0.388-1.261,0.451-1.895,0.175c-0.632-0.275-1.055-0.825-1.16-1.508l-0.233-1.515C47.028,32.36,46.608,32,46.115,32h-2.77
		c-0.479,0-0.892,0.341-0.982,0.812l-0.358,1.865c-0.127,0.662-0.558,1.19-1.181,1.448c-0.624,0.261-1.301,0.189-1.86-0.189
		l-1.572-1.064c-0.397-0.267-0.928-0.218-1.268,0.121l-1.959,1.958c-0.35,0.349-0.392,0.9-0.1,1.299l0.907,1.236
		c0.408,0.556,0.498,1.243,0.245,1.885c-0.252,0.643-0.785,1.086-1.462,1.216l-1.444,0.277c-0.471,0.091-0.812,0.503-0.812,0.982
		v2.77c0,0.493,0.36,0.913,0.848,0.988l1.515,0.233c0.683,0.105,1.232,0.528,1.508,1.16c0.276,0.633,0.212,1.323-0.175,1.895
		l-0.824,1.217c-0.269,0.396-0.218,0.929,0.121,1.268l1.958,1.959c0.348,0.348,0.898,0.391,1.299,0.1l1.236-0.907
		c0.556-0.407,1.245-0.499,1.885-0.245c0.643,0.252,1.086,0.785,1.216,1.462l0.277,1.444C42.454,57.659,42.866,58,43.346,58h2.77
		c0.493,0,0.913-0.36,0.988-0.848l0.164-1.065c0.105-0.688,0.552-1.256,1.193-1.522c0.643-0.265,1.36-0.179,1.921,0.232l0.869,0.638
		c0.399,0.293,0.951,0.25,1.299-0.1l1.958-1.959c0.339-0.339,0.39-0.871,0.121-1.268l-0.824-1.217
		c-0.387-0.571-0.451-1.262-0.175-1.895c0.275-0.632,0.825-1.055,1.508-1.16l1.515-0.233c0.487-0.075,0.848-0.495,0.848-0.988v-2.77
		C57.5,43.366,57.159,42.954,56.688,42.863z M55.5,45.758l-0.667,0.103c-1.354,0.208-2.489,1.082-3.036,2.337
		c-0.548,1.256-0.416,2.682,0.352,3.815l0.361,0.533l-0.768,0.768l-0.177-0.13c-1.13-0.826-2.575-1.002-3.869-0.467
		c-1.294,0.536-2.192,1.682-2.405,3.065L45.258,56h-1.086l-0.121-0.633c-0.259-1.346-1.175-2.447-2.449-2.947
		c-1.276-0.499-2.695-0.314-3.8,0.494l-0.544,0.399l-0.768-0.768l0.361-0.533c0.768-1.134,0.899-2.56,0.352-3.815
		c-0.547-1.255-1.683-2.129-3.036-2.337L33.5,45.758v-1.086l0.633-0.121c1.346-0.259,2.447-1.175,2.947-2.449
		c0.5-1.275,0.315-2.695-0.494-3.8l-0.399-0.544l0.768-0.768l0.889,0.602c1.107,0.751,2.51,0.892,3.747,0.381
		c1.237-0.513,2.127-1.604,2.38-2.919L44.172,34h1.086l0.103,0.667c0.208,1.354,1.082,2.489,2.337,3.036
		c1.255,0.548,2.682,0.416,3.815-0.352l0.533-0.361l0.768,0.768l-0.399,0.544c-0.81,1.104-0.994,2.524-0.494,3.8
		c0.5,1.274,1.602,2.19,2.947,2.449l0.633,0.121V45.758z"/>
	<path d="M44.5,40c-2.757,0-5,2.243-5,5s2.243,5,5,5s5-2.243,5-5S47.257,40,44.5,40z M44.5,48c-1.654,0-3-1.346-3-3s1.346-3,3-3
		s3,1.346,3,3S46.154,48,44.5,48z"/>
	<path d="M28,53c-0.634,0-1.266-0.031-1.895-0.078c-0.109-0.008-0.218-0.015-0.326-0.025c-0.634-0.056-1.265-0.131-1.89-0.233
		c-0.028-0.005-0.056-0.01-0.084-0.015c-1.322-0.221-2.623-0.546-3.89-0.971c-0.039-0.013-0.079-0.026-0.118-0.04
		c-0.629-0.214-1.251-0.45-1.862-0.713c-0.004-0.002-0.009-0.004-0.013-0.006c-0.578-0.249-1.145-0.525-1.705-0.816
		c-0.073-0.038-0.147-0.074-0.219-0.113c-0.511-0.273-1.011-0.568-1.504-0.876c-0.146-0.092-0.291-0.185-0.435-0.279
		c-0.454-0.297-0.902-0.606-1.338-0.933c-0.045-0.034-0.088-0.07-0.133-0.104c0.032-0.018,0.064-0.036,0.096-0.054l7.907-4.313
		c1.36-0.742,2.205-2.165,2.205-3.714l-0.001-3.602l-0.23-0.278c-0.022-0.025-2.184-2.655-3.001-6.216l-0.091-0.396l-0.341-0.221
		c-0.481-0.311-0.769-0.831-0.769-1.392v-3.545c0-0.465,0.197-0.898,0.557-1.223l0.33-0.298v-5.57l-0.009-0.131
		c-0.003-0.024-0.298-2.429,1.396-4.36C22.083,10.837,24.561,10,28,10c3.426,0,5.896,0.83,7.346,2.466
		c1.692,1.911,1.415,4.361,1.413,4.381l-0.009,5.701l0.33,0.298c0.359,0.324,0.557,0.758,0.557,1.223v3.545
		c0,0.713-0.485,1.36-1.181,1.575c-0.527,0.162-0.823,0.723-0.66,1.25c0.162,0.527,0.72,0.821,1.25,0.66
		c1.55-0.478,2.591-1.879,2.591-3.485v-3.545c0-0.867-0.318-1.708-0.887-2.369v-4.667c0.052-0.52,0.236-3.448-1.883-5.864
		C35.024,9.065,32.041,8,28,8s-7.024,1.065-8.867,3.168c-2.119,2.416-1.935,5.346-1.883,5.864v4.667
		c-0.568,0.661-0.887,1.502-0.887,2.369v3.545c0,1.101,0.494,2.128,1.34,2.821c0.81,3.173,2.477,5.575,3.093,6.389v2.894
		c0,0.816-0.445,1.566-1.162,1.958l-7.907,4.313c-0.252,0.137-0.502,0.297-0.752,0.476C5.776,41.792,2.5,35.022,2.5,27.5
		C2.5,13.439,13.939,2,28,2s25.5,11.439,25.5,25.5c0,0.553,0.447,1,1,1s1-0.447,1-1C55.5,12.337,43.163,0,28,0S0.5,12.337,0.5,27.5
		c0,8.009,3.444,15.228,8.926,20.258l-0.026,0.023l0.892,0.752c0.058,0.049,0.121,0.089,0.178,0.137
		c0.474,0.393,0.965,0.766,1.465,1.127c0.162,0.117,0.324,0.235,0.489,0.348c0.534,0.368,1.082,0.717,1.642,1.048
		c0.122,0.072,0.245,0.142,0.368,0.212c0.613,0.349,1.239,0.678,1.88,0.98c0.047,0.022,0.094,0.042,0.142,0.064
		c2.089,0.971,4.319,1.684,6.651,2.105c0.061,0.011,0.122,0.022,0.184,0.033c0.724,0.125,1.456,0.225,2.197,0.292
		c0.09,0.008,0.181,0.013,0.271,0.021C26.498,54.961,27.244,55,28,55c0.553,0,1-0.447,1-1S28.553,53,28,53z"/>
</g>
<g>
</g>
<g>
</g>
<g>
</g>
<g>
</g>
<g>
</g>
<g>
</g>
<g>
</g>
<g>
</g>
<g>
</g>
<g>
</g>
<g>
</g>
<g>
</g>
<g>
</g>
<g>
</g>
<g>
</g>
</svg>
