<svg xmlns="http://www.w3.org/2000/svg" viewBox="0 0 24 24"><path fill="#25D366" d="M20.52 3.48A11.93 11.93 0 0012.02 0C5.65 0 .49 5.16.49 11.53c0 2.03.53 4.02 1.53 5.78L0 24l6.86-1.97a11.48 11.48 0 005.16 1.27h.01c6.37 0 11.53-5.16 11.53-11.53 0-3.08-1.2-5.98-3.04-8.29zM12.03 21.3h-.01a9.78 9.78 0 01-4.98-1.36l-.36-.21-4.07 1.17 1.17-3.97-.24-.41a9.75 9.75 0 01-1.49-5.18c0-5.39 4.38-9.77 9.78-9.77a9.7 9.7 0 016.93 2.87 9.74 9.74 0 012.86 6.93c0 5.39-4.38 9.78-9.79 9.78zm5.59-7.25c-.3-.15-1.75-.86-2.02-.96-.27-.1-.47-.15-.67.15-.2.3-.76.96-.93 1.16-.17.2-.34.22-.64.07-.3-.15-1.26-.46-2.4-1.46-.89-.79-1.49-1.76-1.67-2.06-.17-.3-.02-.47.13-.62.13-.13.3-.34.45-.52.15-.17.2-.3.3-.5.1-.2.05-.37-.02-.52-.07-.15-.67-1.62-.91-2.22-.24-.58-.49-.5-.67-.51h-.57c-.2 0-.52.07-.79.37-.27.3-1.04 1-1.04 2.43 0 1.43 1.06 2.81 1.2 3 .15.2 2.08 3.17 5.04 4.45.7.3 1.25.48 1.68.62.7.22 1.34.2 1.85.12.57-.08 1.75-.72 2-1.42.25-.7.25-1.3.17-1.42-.07-.12-.27-.2-.57-.35z"/></svg>
