<?xml version="1.0" encoding="iso-8859-1"?>
<!-- Generator: Adobe Illustrator 19.0.0, SVG Export Plug-In . SVG Version: 6.00 Build 0)  -->
<svg version="1.1" id="Capa_1" xmlns="http://www.w3.org/2000/svg" xmlns:xlink="http://www.w3.org/1999/xlink" x="0px" y="0px"
	 viewBox="0 0 512 512" style="enable-background:new 0 0 512 512;" xml:space="preserve">
<g>
	<g>
		<path d="M421.184,384.96l-81.728-20.437l-4.715-18.88c56.384-9.493,85.397-26.389,86.677-27.136
			c3.029-1.771,4.907-4.992,5.163-8.491c0.235-3.499-1.323-6.933-4.075-9.131C422.123,300.587,384,269.099,384,160
			c0-92.011-21.525-138.667-64-138.667h-6.293C298.389,6.528,286.891,0,256,0c-40.085,0-128,40.299-128,160
			c0,109.099-38.123,140.587-38.4,140.8c-2.837,2.133-4.437,5.525-4.267,9.067c0.192,3.563,2.112,6.763,5.163,8.597
			c1.28,0.768,30.016,17.749,86.741,27.221l-4.715,18.837L90.795,384.96C37.333,398.336,0,446.165,0,501.333
			C0,507.221,4.779,512,10.667,512h490.667c5.888,0,10.667-4.821,10.667-10.709C512,446.165,474.667,398.336,421.184,384.96z"/>
	</g>
</g>
<g>
</g>
<g>
</g>
<g>
</g>
<g>
</g>
<g>
</g>
<g>
</g>
<g>
</g>
<g>
</g>
<g>
</g>
<g>
</g>
<g>
</g>
<g>
</g>
<g>
</g>
<g>
</g>
<g>
</g>
</svg>
