<svg width="65" height="54" viewBox="0 0 65 54" fill="none" xmlns="http://www.w3.org/2000/svg">
<path d="M32.2539 42.9441C44.2478 42.9441 54.0052 33.4333 54.0052 21.7439C54.0052 10.0546 44.2478 0.543823 32.2539 0.543823C20.2601 0.543823 10.5027 10.0546 10.5027 21.7439C10.5027 33.4333 20.2603 42.9441 32.2539 42.9441ZM34.7355 2.76112L36.605 2.08988C39.2434 2.6444 41.6965 3.68667 43.8558 5.12322C43.6702 5.10517 43.1794 5.05604 43.0947 5.02836C42.9901 4.99447 42.8282 5.67755 42.8282 5.67755L43.6862 6.01006L43.9202 5.16995C44.8112 5.76759 45.6433 6.43944 46.426 7.16243L45.1649 8.39161H44.9422L44.7607 7.6977L44.0706 6.48898L41.6333 5.63262L39.9479 6.42781L40.9043 8.44616C38.5473 6.98434 35.7818 6.10612 32.8116 6.00665V3.19331L34.5291 3.72197L33.8151 2.49539L32.8116 2.91394V1.65789C33.5568 1.67734 34.2908 1.73691 35.0147 1.83197L34.171 2.10612L34.7355 2.76112ZM46.0229 18.2784L46.4334 18.1089L46.5367 17.1242C46.9768 18.4136 47.2305 19.7813 47.2843 21.2002H43.5015L43.641 20.6112L44.7099 20.5208L45.5947 19.0521L45.5698 18.7766L44.6634 19.9091L44.1097 20.0415L43.757 19.6371L44.1721 18.9499L43.2692 18.3007L42.4578 18.994C42.2395 18.2255 41.9416 17.4892 41.5568 16.8034L41.9969 16.6473L42.3498 16.4422L42.3467 16.0376L42.573 15.7635L42.4422 15.6853C42.3455 15.7302 41.8409 15.873 41.8409 15.873L41.6658 16.4267L41.4148 16.5755C41.0446 15.9546 40.6096 15.377 40.1195 14.8468L42.2056 12.8138L42.2237 12.8425L42.7319 12.5448L42.6531 12.3774L43.2731 11.7731C44.6706 13.2395 45.762 14.9801 46.4552 16.9068L45.9361 16.155L45.6686 16.2522L46.0229 18.2784ZM43.2729 31.7146L42.1444 30.6147L41.7185 29.5145L41.4994 29.9862L41.0627 29.5608L41.5101 28.224L41.2204 27.2539L41.1996 27.2565C41.5062 26.7856 41.7825 26.2943 42.0088 25.7762L42.0142 25.7756C42.084 25.7756 42.3395 25.4586 42.3395 25.4586L42.9669 25.5265L44.5889 24.9016L43.9663 24.326L43.5996 24.0068L43.3157 23.4428L42.8074 22.5804C42.8154 22.4836 42.8175 22.3853 42.8226 22.2876H47.2845C47.1468 25.923 45.6521 29.2185 43.2729 31.7146ZM21.6224 31.0189L22.1811 30.0676L20.9788 25.9722L20.0309 23.6917L20.8905 23.3293L21.1228 22.6498L21.7035 22.6334C21.9064 24.9349 22.8885 27.0172 24.389 28.6409L21.9255 31.0417L21.6224 31.0189ZM22.9644 20.9794L22.9523 21.2002H22.8009C22.806 21.1166 22.8066 21.032 22.814 20.949L22.9644 20.9794ZM37.2834 29.5633L37.0927 29.4622L34.6595 30.3791L33.3986 29.906L32.8118 30.064V29.2823L33.419 29.1036L33.7873 29.19L34.562 29.4856L34.0949 28.6529L35.096 29.4708L35.576 29.5777L35.4299 28.9538L35.7554 27.9223L36.89 27.2479L36.9884 27.8688L35.6046 28.602L35.87 29.118L37.3094 28.8349L37.332 29.5346C37.3162 29.5444 37.2995 29.5534 37.2834 29.5633ZM31.5494 25.4794L31.5062 25.389L31.2449 25.4038C30.9088 25.3154 30.593 25.1854 30.2992 25.018L31.27 24.903L31.6965 23.7874V25.4941C31.6479 25.4872 31.5971 25.488 31.5494 25.4794ZM27.4717 23.1516L26.5234 23.0092L27.0071 22.2874H27.2909C27.3252 22.5853 27.3849 22.8724 27.4717 23.1516ZM32.8118 19.3903L33.0733 19.4675L33.4023 19.8561L32.8118 20.4315V19.3903ZM34.5708 26.2999L34.1182 26.8165L33.3634 27.1823L33.1105 26.7501L32.958 27.6095L32.8118 27.6652V26.5815C32.9173 26.5698 33.026 26.568 33.1295 26.5502L33.4906 26.9914L33.7904 26.6276L33.7669 26.3845C33.9334 26.3328 34.1033 26.2899 34.2618 26.2219L34.5708 26.2999ZM34.2313 20.5854L34.2194 21.1734L34.1976 21.2002H33.6005L34.2313 20.5854ZM34.5896 22.6101L35.3118 22.5879L35.7054 22.9077L35.5742 23.138L35.0231 22.8309L34.7213 23.061L34.8729 23.5018L34.8665 23.5212L33.6007 22.2872H34.4441L34.5896 22.6101ZM34.1118 24.323L33.4221 24.2506L32.9348 25.4816C32.8947 25.4884 32.8523 25.488 32.8118 25.4939V23.056L34.1118 24.323ZM30.5308 21.2002L30.4823 21.0019L29.9979 21.2002H29.7835L29.8543 20.9137L30.1671 20.6182L29.9189 20.5633L29.6611 20.9205L29.393 21.0404L29.4244 21.2002H29.1432L29.3127 20.5579L29.8084 20.1293L30.9074 21.2002H30.5308ZM28.4615 22.2874L28.5757 22.4188L28.653 22.2874H29.052L28.5331 22.8345C28.4779 22.6565 28.4343 22.4754 28.4063 22.2874H28.4615ZM29.0792 23.9424L29.8 22.7287L29.6115 22.5644L29.9292 22.4046L29.9689 22.2874H30.4763L30.3601 22.3482L30.3117 22.5113L30.7047 22.4852L30.4123 22.7702L30.1148 22.8311L30.0533 23.1201L29.138 24.012C29.1195 23.9877 29.0971 23.9669 29.0792 23.9424ZM31.6963 18.1071L31.4879 18.0759L31.6492 18.728L31.6963 18.7639V20.4315L30.7588 19.518L31.4167 19.1715L30.8226 18.212C31.0994 18.1051 31.393 18.0365 31.6963 17.9936V18.1071ZM22.8928 22.2874L22.8815 22.4944L22.8346 22.7706C22.8165 22.6113 22.8105 22.4491 22.8009 22.2876L22.8928 22.2874ZM23.4385 23.5784L24.1322 24.2581L24.7013 23.8718L26.0421 24.9684L27.4845 25.2157L27.8878 24.1096C28.0236 24.3467 28.1765 24.5697 28.3495 24.7807L27.1102 25.9884L27.3094 25.4935L26.5717 25.3765L26.8079 26.2207L26.8429 26.2491L25.1772 27.8726C24.0916 26.6831 23.3085 25.2261 22.9671 23.6097L23.4385 23.5784ZM29.1382 25.5492C29.8584 26.1106 30.7329 26.4756 31.6963 26.5813V27.8385L31.6837 27.8682L31.6963 27.8642V28.8044L31.3714 28.8677L31.1831 30.0478L31.6963 29.9896V30.3641L30.8837 30.5827L30.6132 30.837C28.8475 30.5347 27.2524 29.7566 25.9659 28.6413L29.1382 25.5492ZM38.5466 30.0345L39.365 30.2036L40.1699 30.2279L40.6127 30.6593L39.2604 30.6113L38.3892 30.1495C38.4425 30.1122 38.494 30.0727 38.5466 30.0345ZM39.3308 27.8724L39.0868 27.6345L39.5837 27.5974C39.5037 27.6927 39.4148 27.7805 39.3308 27.8724ZM40.6101 17.3848C40.2306 17.3902 39.8625 17.3952 39.8298 17.3952C39.76 17.3952 39.2131 17.8506 39.2131 17.8506L38.7954 18.3779L38.6695 17.7347L38.9654 17.0777L38.7374 16.8741L37.7149 17.5085L37.4981 17.4016L38.297 16.6231L38.4726 16.6796L38.9816 16.5629L38.723 16.2079L39.3308 15.6153C39.8228 16.1546 40.257 16.7444 40.6101 17.3848ZM37.6186 15.7466L37.5699 15.5944L37.2388 15.6454L37.033 16.0336L36.1233 16.1211C36.19 16.2508 36.4727 16.7899 36.4985 16.8384L35.3698 17.9385C35.1297 17.7514 34.8739 17.5881 34.6009 17.4459L34.7406 17.3725L34.5745 16.8264L34.4616 16.6251L33.9583 17.1615C33.5937 17.0322 33.2097 16.9502 32.8116 16.9064V12.5304C35.0052 12.6557 36.997 13.5071 38.5419 14.8466L37.6186 15.7466ZM31.6963 16.9064C31.3362 16.9459 30.9895 17.0191 30.6564 17.129L30.8232 16.7512L29.9533 17.4176L29.9549 17.4202C29.664 17.5679 29.3923 17.7403 29.1382 17.9383L25.9659 14.8464C27.5108 13.5069 29.5026 12.6553 31.6963 12.5302V16.9064ZM28.1707 18.5327L26.6709 18.7884L26.7234 18.2331L25.4803 17.8149L23.4926 18.22C23.9017 17.2578 24.4772 16.382 25.1772 15.6151L28.1707 18.5327ZM23.3568 18.5812L23.9811 18.7086L23.233 18.9103C23.27 18.7986 23.3155 18.6911 23.3568 18.5812ZM21.6854 21.2002H21.5889L21.6903 21.1088C21.6883 21.1393 21.6871 21.1698 21.6854 21.2002ZM22.8747 31.6538L25.1775 29.4094C26.4341 30.5127 27.959 31.3243 29.6479 31.7428L28.8547 32.4877L30.5617 34.6861L31.6963 34.7471V36.393C28.7172 36.2861 25.9573 35.3417 23.6616 33.7803L24.0303 33.547L22.8747 31.6538ZM32.8118 34.8073L34.2501 34.8845L34.2867 35.206L35.1618 36.1405C34.3984 36.2868 33.6116 36.3646 32.8118 36.3932V34.8073ZM41.9488 31.9612L42.4842 32.4833C42.228 32.7151 41.9706 32.945 41.6983 33.1593L41.9488 31.9612ZM42.4842 11.0046L42.1576 11.3229L41.7702 10.4982L41.0658 10.133C41.0658 10.133 40.41 9.56905 40.0687 9.2217C40.9356 9.73792 41.7438 10.3342 42.4842 11.0046ZM39.917 9.13185L40.4098 10.8125L41.5611 11.7892L41.606 11.8606L39.3306 14.0781C37.582 12.543 35.3126 11.5708 32.8118 11.443V7.09424C35.4007 7.1875 37.8199 7.91671 39.917 9.13185ZM31.6963 11.4432C29.1954 11.571 26.926 12.543 25.1775 14.0783L22.0239 11.0046C24.5848 8.68542 27.9662 7.22841 31.6963 7.09444V11.4432ZM24.3888 14.847C23.1935 16.1403 22.327 17.7235 21.9218 19.4795L20.9414 21.2002H17.2236C17.3613 17.5646 18.8559 14.2692 21.2352 11.7731L24.3888 14.847ZM20.4039 22.2874L19.3446 24.5067L17.8462 23.9634L17.565 24.9357C17.3691 24.0788 17.2582 23.1931 17.2238 22.2874H20.4039ZM19.287 33.2953L19.4601 33.4447L17.2934 35.5565C15.7974 34.0181 14.5544 32.2512 13.613 30.3141L14.1892 30.6422L18.0323 33.975L19.287 33.2953ZM20.2961 34.1669L20.8206 34.6202L22.5221 34.3049C25.0941 36.2027 28.2573 37.3651 31.6963 37.4802V41.829C26.4291 41.6908 21.6556 39.6261 18.0818 36.3249L20.2961 34.1669ZM32.8118 37.4804C33.7568 37.4487 34.685 37.3527 35.5828 37.1688L35.6869 37.8386L38.3452 39.7493L41.3383 38.1306L42.1975 36.3652L42.1411 35.2728L42.7064 33.9804L42.5683 33.8751C42.8126 33.6774 43.0403 33.4624 43.2722 33.2514L43.7864 33.7526L43.9428 34.6996L44.5266 34.4742L46.426 36.3253C42.8523 39.6267 38.0789 41.6912 32.8116 41.8294L32.8118 37.4804ZM44.7935 33.1964L44.6867 31.9588L44.5439 31.9653C46.846 29.3396 48.2701 25.9736 48.3999 22.2876H52.8615C52.7197 27.4214 50.6016 32.0734 47.2147 35.5565L44.7935 33.1964ZM48.3997 21.2002C48.303 18.4571 47.4869 15.8949 46.1252 13.6786L48.0217 15.4073L49.5433 14.1334L47.2079 10.702L45.6665 9.54679L45.6706 9.43609L47.2147 7.93115C50.6016 11.4143 52.7197 16.0665 52.8615 21.2H48.3997V21.2002ZM31.6963 6.00725C27.659 6.14243 23.9992 7.72077 21.2356 10.2363L18.0818 7.16263C21.6556 3.86135 26.4289 1.79667 31.6963 1.65849V6.00725ZM20.4469 11.005C17.8662 13.6986 16.247 17.2654 16.1081 21.2002H11.6463C11.7881 16.0665 13.9062 11.4145 17.2931 7.93134L20.4469 11.005ZM16.1084 22.2874C16.1653 23.9037 16.4703 25.4564 16.9921 26.9146L16.8236 27.4968L12.4642 27.4033C11.9727 25.7736 11.6953 24.0587 11.6465 22.2872L16.1084 22.2874Z" fill="#418FDE"/>
<path d="M17.2244 46.93L21.2517 46.2947C21.6117 46.2377 21.7609 45.8139 21.5117 45.5546C20.5432 44.5458 18.6181 42.4569 17.5034 40.6788C15.9697 38.2327 13.269 36.2161 13.269 36.2161C13.269 36.2161 13.7853 42.9438 18.9907 45.2542C18.9907 45.2542 13.8318 43.9857 10.5319 43.1251C7.23205 42.2646 6.32874 41.3172 6.32874 41.3172C6.32874 41.3172 8.90512 47.7454 17.2244 46.93Z" fill="#418FDE"/>
<path d="M13.2298 39.4107C13.0903 37.7345 11.8335 33.4493 9.46413 29.9068C9.46413 29.9068 9.46701 38.5161 12.6033 41.4321C12.6033 41.4321 8.16369 37.2815 5.51446 35.3789C3.03417 33.5978 1.93579 31.5738 1.93579 31.5738C1.93579 31.5738 2.60226 37.0138 6.21159 39.7276C8.65156 41.5623 14.0663 42.8532 14.0663 42.8532C14.0663 42.8532 13.3693 41.0868 13.2298 39.4107Z" fill="#418FDE"/>
<path d="M4.72548 32.9786L7.43767 35.2651C7.7206 35.5034 8.16135 35.3152 8.16711 34.9506C8.18192 34.0311 8.23974 32.6355 8.44366 31.7557C8.76897 30.3514 9.17145 25.7914 7.52944 22.4769C7.52944 22.4769 5.54463 28.4169 7.09589 33.3639C7.09589 33.3639 4.65902 29.5875 2.16926 26.7274C0.867997 25.2325 0.352554 23.4701 0.352554 23.4701C0.352554 23.4701 0.310166 29.4 4.72548 32.9786Z" fill="#418FDE"/>
<path d="M3.98022 27.1269C4.19277 27.4062 4.63393 27.3473 4.75534 27.0204C5.11193 26.0615 5.80392 24.3374 6.72266 22.6955C8.39594 19.7057 7.62411 16.187 7.62411 16.187C7.62411 16.187 4.93806 20.6745 4.15944 25.6614C4.10882 25.439 4.05327 25.2014 3.9868 24.9298C3.24955 21.9093 0.382002 14.375 0.382002 14.375C0.382002 14.375 -0.626659 18.5128 0.634064 21.7896C1.2814 23.4712 3.09131 25.9581 3.98022 27.1269Z" fill="#418FDE"/>
<path d="M3.42751 20.5118C3.50838 20.8125 3.94028 20.8199 4.03226 20.5223C4.28884 19.6918 4.82281 18.547 5.93332 17.4406C8.02472 15.3568 9.61055 12.4643 10.4213 9.87898C10.4213 9.87898 5.95884 13.3686 4.55181 15.7216C4.55181 15.7216 4.69091 12.4857 4.21374 10.1473C3.80694 8.15423 4.67116 6.23395 4.67116 6.23395C4.67116 6.23395 1.84332 8.87902 2.26164 13.7262C2.52482 16.7755 3.06392 19.1615 3.42751 20.5118Z" fill="#418FDE"/>
<path d="M6.2499 12.2033C7.09642 11.447 8.57896 10.1586 10.0082 9.37708C11.906 8.33943 13.4068 4.99182 13.7379 4.24697C13.7379 4.24697 8.44974 8.46477 7.01041 9.8189C7.01041 9.8189 7.88183 6.04773 8.43966 4.41684C8.99728 2.78595 8.92773 2.24246 9.4156 1.56299C9.4156 1.56299 6.8709 3.73737 6.17377 5.47014C5.60071 6.89426 5.71059 10.1312 5.6324 11.9181C5.6182 12.2414 6.00504 12.4219 6.2499 12.2033Z" fill="#418FDE"/>
<path d="M11.6009 4.62051C13.0881 3.44267 15.4583 0 15.4583 0C14.8711 0.3271 12.4838 1.13252 10.4852 3.1256C8.4866 5.11868 8.06848 7.83656 8.06848 7.83656C8.06848 7.83656 10.1136 5.79815 11.6009 4.62051Z" fill="#418FDE"/>
<path d="M45.3734 47.9263C41.0046 47.0884 37.2631 46.4767 32.8777 47.5885C32.6618 47.6433 32.4602 47.7065 32.2521 47.7656C32.0441 47.7063 31.8425 47.6431 31.6266 47.5885C27.2411 46.4767 23.4997 47.0882 19.1309 47.9263C15.1932 48.6813 11.4227 48.0279 11.4227 48.0279C11.4227 48.0279 14.158 50.7348 20.3859 50.7348C23.1028 50.7348 26.5175 48.5057 28.672 48.3869C29.2027 48.3577 29.7266 48.3891 30.2457 48.4455C25.6193 50.285 23.4837 53.0742 23.4417 53.1284C23.2559 53.3672 23.3038 53.7082 23.5489 53.8885C23.6497 53.9639 23.7678 54 23.8855 54C24.0538 54 24.2205 53.9256 24.33 53.7856C24.4999 53.5674 27.9177 50.1217 32.2521 48.8486C36.5866 50.1217 40.0043 53.5674 40.1743 53.7856C40.2838 53.9258 40.4504 54 40.6188 54C40.7365 54 40.8546 53.9639 40.9554 53.8885C41.2005 53.708 41.2484 53.3672 41.0626 53.1284C41.0206 53.0744 38.885 50.285 34.2586 48.4455C34.7777 48.3891 35.3018 48.3577 35.8322 48.3869C37.9868 48.5057 41.4015 50.7348 44.1184 50.7348C50.3463 50.7348 53.0815 48.0279 53.0815 48.0279C53.0815 48.0279 49.3111 48.6813 45.3734 47.9263Z" fill="#418FDE"/>
<path d="M45.5148 45.2542C50.7202 42.9438 51.2365 36.2161 51.2365 36.2161C51.2365 36.2161 48.5358 38.2327 47.0021 40.6788C45.8872 42.4567 43.9623 44.5458 42.9937 45.5546C42.7446 45.8141 42.8937 46.2379 43.2538 46.2947L47.2811 46.93C55.6004 47.7454 58.177 41.317 58.177 41.317C58.177 41.317 57.2736 42.2642 53.9738 43.1249C50.6737 43.9859 45.5148 45.2542 45.5148 45.2542Z" fill="#418FDE"/>
<path d="M58.9944 35.3788C56.3452 37.2815 51.9056 41.4321 51.9056 41.4321C55.0419 38.5161 55.0447 29.9068 55.0447 29.9068C52.6756 33.4491 51.4185 37.7345 51.279 39.4107C51.1395 41.0868 50.4424 42.8534 50.4424 42.8534C50.4424 42.8534 55.8569 41.5625 58.2971 39.7278C61.9064 37.014 62.5729 31.574 62.5729 31.574C62.5729 31.574 61.4747 33.5975 58.9944 35.3788Z" fill="#418FDE"/>
<path d="M57.4115 33.3633C58.9628 28.4163 56.978 22.4764 56.978 22.4764C55.336 25.7909 55.7382 30.3508 56.0638 31.7551C56.2677 32.6349 56.3255 34.0306 56.3403 34.9501C56.3463 35.3147 56.7868 35.5028 57.0697 35.2646L59.7819 32.9781C64.1972 29.3994 64.1549 23.4693 64.1549 23.4693C64.1549 23.4693 63.6396 25.2318 62.3382 26.7267C59.8484 29.5869 57.4115 33.3633 57.4115 33.3633Z" fill="#418FDE"/>
<path d="M60.3467 25.6607C59.5681 20.6738 56.8821 16.1863 56.8821 16.1863C56.8821 16.1863 56.1104 19.705 57.7835 22.6948C58.7022 24.3367 59.3942 26.0611 59.7508 27.0197C59.8724 27.3466 60.3136 27.4056 60.5259 27.1262C61.4149 25.9574 63.2248 23.4705 63.8719 21.7885C65.1326 18.5117 64.124 14.3739 64.124 14.3739C64.124 14.3739 61.2564 21.9082 60.5192 24.9287C60.4531 25.2007 60.3975 25.4381 60.3467 25.6607Z" fill="#418FDE"/>
<path d="M60.2941 10.1473C59.817 12.4857 59.9561 15.7216 59.9561 15.7216C58.549 13.3686 54.0866 9.87898 54.0866 9.87898C54.8971 12.4643 56.4829 15.3568 58.5746 17.4406C59.6851 18.547 60.219 19.6918 60.4756 20.5223C60.5676 20.8199 60.9993 20.8125 61.0804 20.5118C61.4442 19.1615 61.9831 16.7755 62.2462 13.7262C62.6646 8.87902 59.8367 6.23395 59.8367 6.23395C59.8367 6.23395 60.7009 8.15423 60.2941 10.1473Z" fill="#418FDE"/>
<path d="M57.4953 9.8189C56.0557 8.46478 50.7678 4.24697 50.7678 4.24697C51.0988 4.99182 52.5997 8.33943 54.4975 9.37708C55.9267 10.1584 57.4092 11.4468 58.2558 12.2033C58.5004 12.4219 58.8873 12.2416 58.8731 11.9181C58.7949 10.1312 58.9047 6.89405 58.3319 5.47014C57.6348 3.73737 55.0901 1.56299 55.0901 1.56299C55.5781 2.24246 55.5084 2.78615 56.066 4.41684C56.6236 6.04772 57.4953 9.8189 57.4953 9.8189Z" fill="#418FDE"/>
<path d="M52.9044 4.62031C54.3916 5.79795 56.4367 7.83656 56.4367 7.83656C56.4367 7.83656 56.0184 5.11868 54.0198 3.1256C52.0214 1.13231 49.6341 0.326899 49.0469 8.76194e-09C49.0469 -0.000200543 51.4171 3.44247 52.9044 4.62031Z" fill="#418FDE"/>
<path d="M43.7912 15.8257L42.8433 16.434L43.8546 16.5882L44.9598 17.7795L45.5785 17.391L44.8361 15.9113L43.7912 15.8257Z" fill="#418FDE"/>
<path d="M45.288 20.8995L45.6389 21.0303L46.5278 18.7031L46.2837 18.3802L45.9004 18.5671L45.2903 20.6735L45.288 20.8995Z" fill="#418FDE"/>
<path d="M36.3673 16.953L36.0885 16.6642L35.4611 17.4458L35.6169 17.6822L36.3673 16.953Z" fill="#418FDE"/>
<path d="M42.7863 15.1352L42.9556 14.6037L42.3947 14.7146L42.2361 14.7583L42.0694 14.9751L42.676 15.661L42.9219 15.4574L42.7863 15.1352Z" fill="#418FDE"/>
<path d="M31.5219 27.5868L31.5307 27.2561L31.1036 27.8588L31.2256 28.0625L31.5219 27.5868Z" fill="#418FDE"/>
</svg>
