<svg width="60" height="54" viewBox="0 0 60 54" fill="none" xmlns="http://www.w3.org/2000/svg">
<path d="M13.9942 6.43762L13.6839 6.62309C13.0531 7.56635 12.3024 8.78636 11.3057 10.0194C10.3295 11.2249 9.67973 12.0479 7.52689 13.7867C6.68955 14.4405 6.13153 15.3825 5.96385 16.4252C5.69602 19.9374 7.10539 23.0396 8.28207 25.0189L8.45183 24.9493C8.01278 23.1976 8.09327 22.2079 8.09327 22.2079C7.98936 20.3765 8.22938 18.3842 9.308 16.6121C10.3983 14.8009 14.7538 8.7965 14.2459 6.63323L13.9971 6.43762H13.9942Z" fill="#FF9A01"/>
<path d="M13.5411 0C13.2279 0.026081 12.9162 0.23328 12.6322 0.525968C12.5616 0.608361 12.5098 0.70485 12.4802 0.808865C12.4507 0.91288 12.4441 1.02198 12.461 1.12873C12.8562 3.52239 10.9653 7.75621 8.58706 9.92673C7.49398 10.8978 6.70347 12.1574 6.30835 13.5578V13.5926L6.41519 13.6375H6.42836C7.00772 12.8524 7.68096 12.1396 8.43339 11.5148C11.6224 9.0733 13.6889 5.25098 13.6889 5.25098C13.6889 5.25098 15.7071 2.28644 14.6504 0.714331C14.3329 0.241974 13.9992 0.026081 13.6728 0H13.5411Z" fill="#FF9A01"/>
<path d="M10.7084 0C10.0616 0.0550599 9.06782 0.833144 7.58674 3.41227C3.78303 10.0368 0.915989 11.9886 0.694997 14.0693C0.474005 16.15 0.522301 29.5484 2.52294 33.2156C6.8418 41.1776 20.5053 45.7983 27.198 53.7733C27.27 53.8661 27.3687 53.9353 27.4811 53.9715C27.5936 54.0078 27.7144 54.0095 27.8279 53.9764C27.9413 53.9433 28.0419 53.8769 28.1166 53.7861C28.1912 53.6953 28.2362 53.5842 28.2459 53.4676C28.6966 49.525 29.1898 37.9798 21.2663 29.2397C16.4967 23.9786 15.4517 22.1558 15.4283 19.2826C15.4122 17.0816 12.4017 15.1473 11.3304 19.3927C10.0586 24.451 15.6713 33.7952 17.5138 36.6902L17.3338 36.8351C15.5264 35.0819 10.9865 30.593 9.38102 28.2197C3.30007 20.7533 3.6923 13.8229 7.54283 9.96875C9.73706 7.77975 11.1883 4.96856 11.6949 1.92565C11.7592 1.52429 11.7388 0.74186 11.4973 0.414398C11.4247 0.302528 11.3285 0.207554 11.2153 0.136016C11.1022 0.0644774 10.9747 0.0180738 10.8416 0L10.7084 0Z" fill="#FF9A01"/>
<path d="M45.7278 6.43762L45.4805 6.63323C44.9756 8.7965 49.331 14.8009 50.4214 16.6121C51.4883 18.3842 51.7386 20.3794 51.642 22.2079C51.642 22.2079 51.7078 23.1976 51.2731 24.9493L51.4341 25.0189C52.6313 23.0396 54.026 19.9374 53.7611 16.4252C53.5955 15.3829 53.0383 14.441 52.201 13.7881C50.0482 12.0494 49.3954 11.2249 48.4222 10.0209C47.4255 8.78781 46.6762 7.5678 46.044 6.62454L45.7366 6.43907L45.7278 6.43762Z" fill="#FF9A01"/>
<path d="M46.0659 0C45.7352 0.026081 45.4073 0.241974 45.0883 0.714331C44.0258 2.28644 46.0498 5.25098 46.0498 5.25098C46.0498 5.25098 48.109 9.0733 51.2951 11.5148C52.0521 12.1357 52.7268 12.849 53.303 13.6375H53.3133L53.426 13.5882C53.2343 12.8507 52.7411 11.3786 51.1531 9.92673C48.7734 7.75331 46.8767 3.52239 47.2763 1.12873C47.2929 1.02177 47.286 0.912498 47.2559 0.808443C47.2259 0.704388 47.1734 0.608018 47.1021 0.525968C46.8182 0.236178 46.5167 0.026081 46.1976 0L46.0659 0Z" fill="#FF9A01"/>
<path d="M48.8885 0C48.7555 0.0175165 48.628 0.0637018 48.515 0.135301C48.4019 0.2069 48.3061 0.302171 48.2343 0.414398C47.9899 0.74186 47.9694 1.52429 48.0294 1.92565C48.5404 4.96805 49.9927 7.77839 52.1858 9.96875C56.0378 13.8229 56.4301 20.7533 50.3594 28.2255C48.7495 30.5988 44.2126 35.0877 42.4036 36.8409L42.2192 36.696C44.0662 33.7981 49.6744 24.4568 48.4012 19.3985C47.3284 15.1531 44.3121 17.0802 44.296 19.2884C44.2799 22.1616 43.232 23.9844 38.4419 29.2455C30.5389 37.9856 31.0291 49.5308 31.4741 53.4733C31.4872 53.5884 31.5343 53.697 31.6096 53.7856C31.6848 53.8743 31.7848 53.9389 31.8969 53.9716C32.0091 54.0042 32.1285 54.0034 32.2402 53.9691C32.3519 53.9349 32.4509 53.8688 32.5249 53.7791C39.2234 45.8099 52.8766 41.1834 57.1999 33.2214C59.199 29.5541 59.2488 16.1557 59.0234 14.0751C58.798 11.9944 55.9427 10.0368 52.139 3.41227C50.6623 0.833144 49.67 0.0550599 49.0159 0H48.8885Z" fill="#FF9A01"/>
<path d="M29.8492 5.94067L29.8023 5.96675C29.9106 6.46519 30.3775 8.82118 29.9941 10.5773C29.6853 11.9451 28.5115 13.3158 27.8471 13.9577C27.1826 14.5996 25.7572 15.7602 24.4678 17.3482C23.4433 18.6175 22.7613 20.7547 23.2531 22.3993C23.859 24.4147 25.8201 25.6347 26.2079 25.8695L26.2387 25.8361C26.0923 25.5087 25.5727 24.0887 26.5489 22.9658C27.5851 21.7849 29.6223 22.6847 30.1477 20.0592L30.1858 20.0433C30.6528 20.717 30.9348 21.4995 31.0039 22.3138C31.121 23.5657 30.1155 24.5031 29.855 24.735L29.8682 24.7973C30.2487 24.8393 31.8454 24.8871 32.8714 22.9803L32.9357 22.9904C33.489 25.8622 30.5151 26.7432 29.937 26.8866V26.9142C30.6775 26.9678 35.2393 27.2155 36.2901 24.1916C37.3834 21.0314 35.3974 19.0638 34.7856 18.1379C33.8578 16.7281 34.3729 14.4895 34.4681 14.1113L34.4285 14.0693C33.9631 14.239 33.5511 14.5274 33.2343 14.9053C32.8977 15.3168 32.5743 16.0833 32.4938 16.2948C32.6547 15.8746 33.6953 12.984 32.7557 10.2875C31.9479 7.95036 30.2253 6.28842 29.8506 5.94067H29.8492Z" fill="#FF9A01"/>
</svg>
