<svg width="23" height="20" viewBox="0 0 23 20" fill="none" xmlns="http://www.w3.org/2000/svg">
<path d="M12.8376 0.309703L22.5834 9.05977C22.8465 9.29727 23 9.63977 23 9.99977C23 10.3598 22.8465 10.7023 22.5834 10.9398L12.8376 19.6898C12.477 20.0123 11.9678 20.0923 11.5317 19.8873C11.098 19.6848 10.8178 19.2398 10.8178 18.7498L10.8178 13.7498L1.21822 13.7498C0.545763 13.7498 2.97683e-07 13.1898 3.27844e-07 12.4998L5.46403e-07 7.49976C5.76564e-07 6.80975 0.545764 6.24975 1.21822 6.24975L10.8178 6.24975L10.8178 1.24971C10.8178 0.759708 11.0956 0.314704 11.5317 0.112203C11.9678 -0.0902982 12.4795 -0.0152993 12.8376 0.309703Z" fill="#951FCC"/>
</svg>