<svg width="34" height="34" viewBox="0 0 34 34" fill="none" xmlns="http://www.w3.org/2000/svg">
<path d="M30.0156 2.65625H28.4219V0H25.7656V2.65625H8.23438V0H5.57812V2.65625H3.98438C1.78739 2.65625 0 4.44364 0 6.64062V30.0156C0 32.2126 1.78739 34 3.98438 34H30.0156C32.2126 34 34 32.2126 34 30.0156V6.64062C34 4.44364 32.2126 2.65625 30.0156 2.65625ZM31.3438 30.0156C31.3438 30.748 30.748 31.3438 30.0156 31.3438H3.98438C3.25205 31.3438 2.65625 30.748 2.65625 30.0156V12.4844H31.3438V30.0156ZM31.3438 9.82812H2.65625V6.64062C2.65625 5.9083 3.25205 5.3125 3.98438 5.3125H5.57812V7.96875H8.23438V5.3125H25.7656V7.96875H28.4219V5.3125H30.0156C30.748 5.3125 31.3438 5.9083 31.3438 6.64062V9.82812Z" fill="#951FCC"/>
<path d="M7.70312 15.2734H5.04688V17.9297H7.70312V15.2734Z" fill="#951FCC"/>
<path d="M13.0156 15.2734H10.3594V17.9297H13.0156V15.2734Z" fill="#951FCC"/>
<path d="M18.3281 15.2734H15.6719V17.9297H18.3281V15.2734Z" fill="#951FCC"/>
<path d="M23.6406 15.2734H20.9844V17.9297H23.6406V15.2734Z" fill="#951FCC"/>
<path d="M28.9531 15.2734H26.2969V17.9297H28.9531V15.2734Z" fill="#951FCC"/>
<path d="M7.70312 20.5859H5.04688V23.2422H7.70312V20.5859Z" fill="#951FCC"/>
<path d="M13.0156 20.5859H10.3594V23.2422H13.0156V20.5859Z" fill="#951FCC"/>
<path d="M18.3281 20.5859H15.6719V23.2422H18.3281V20.5859Z" fill="#951FCC"/>
<path d="M23.6406 20.5859H20.9844V23.2422H23.6406V20.5859Z" fill="#951FCC"/>
<path d="M7.70312 25.8984H5.04688V28.5547H7.70312V25.8984Z" fill="#951FCC"/>
<path d="M13.0156 25.8984H10.3594V28.5547H13.0156V25.8984Z" fill="#951FCC"/>
<path d="M18.3281 25.8984H15.6719V28.5547H18.3281V25.8984Z" fill="#951FCC"/>
<path d="M23.6406 25.8984H20.9844V28.5547H23.6406V25.8984Z" fill="#951FCC"/>
<path d="M28.9531 20.5859H26.2969V23.2422H28.9531V20.5859Z" fill="#951FCC"/>
</svg>
