<svg xmlns="http://www.w3.org/2000/svg" viewBox="0 0 128 128" width="512" height="512">
  <path fill="#e9d2f4"
    d="M109.7 110H18.2c-5.1 0-9.2-4.1-9.2-9.2V22.6c0-2.5 2.1-4.6 4.6-4.6H96c2.5 0 4.6 2.1 4.6 4.6v78.3c0 5 4.1 9.1 9.1 9.1 5.1 0 9.2-4.1 9.2-9.2V50.2c0-2.5-2.1-4.6-4.6-4.6h-4.6" />
  <path fill="#d4a5ea"
    d="M23 31.9h63.1c1.7 0 3 1.3 3 3v16.9c0 1.7-1.3 3-3 3H23c-1.7 0-3-1.3-3-3V34.9c0-1.7 1.3-3 3-3zm86.7 78.1c5.1 0 9.2-4.1 9.2-9.2V50.2c0-2.5-2.1-4.6-4.6-4.6h-13.8v55.2c.1 5.1 4.2 9.2 9.2 9.2z" />
  <path fill="#bf78e0"
    d="M109.7 113H18.2C11.5 113 6 107.5 6 100.8V22.6c0-4.2 3.4-7.6 7.6-7.6H96c4.2 0 7.6 3.4 7.6 7.6v78.3c0 3.4 2.8 6.2 6.2 6.2s6.2-2.8 6.2-6.2V50.2c0-.9-.7-1.6-1.6-1.6h-4.6c-1.7 0-3-1.3-3-3s1.3-3 3-3h4.6c4.2 0 7.6 3.4 7.6 7.6v50.6c-.1 6.8-5.6 12.2-12.3 12.2zM13.6 21c-.9 0-1.6.7-1.6 1.6v78.3c0 3.4 2.8 6.2 6.2 6.2h81.1c-1.1-1.8-1.7-3.9-1.7-6.2V22.6c0-.9-.7-1.6-1.6-1.6H13.6z" />
  <path fill="#d4a5ea"
    d="M41.2 72.9H23c-1.7 0-3-1.3-3-3s1.3-3 3-3h18.2c1.7 0 3 1.3 3 3s-1.3 3-3 3zm0 25.8H23c-1.7 0-3-1.3-3-3s1.3-3 3-3h18.2c1.7 0 3 1.3 3 3s-1.3 3-3 3zm0-13H23c-1.7 0-3-1.3-3-3s1.3-3 3-3h18.2c1.7 0 3 1.3 3 3s-1.3 3-3 3z" />
  <path fill="#bf78e0"
    d="M86 99.1H58c-1.7 0-3-1.3-3-3V68.6c0-1.7 1.3-3 3-3h28c1.7 0 3 1.3 3 3v27.5c0 1.6-1.3 3-3 3zm-25-6h22V71.6H61v21.5z" />
</svg>