<svg width="32" height="32" viewBox="0 0 32 32" fill="none" xmlns="http://www.w3.org/2000/svg">
<path d="M27.3333 32H5C2.24267 32 0 29.7573 0 27V3.66667C0 1.644 1.644 0 3.66667 0H20.3333C22.356 0 24 1.644 24 3.66667V4H28.3333C30.356 4 32 5.644 32 7.66667V27C32 29.5547 30.0747 31.6667 27.5987 31.964C27.5147 31.988 27.4253 32 27.3333 32ZM24 6V27C24 28.6547 25.3453 30 27 30C28.6547 30 30 28.6547 30 27V7.66667C30 6.748 29.252 6 28.3333 6H24ZM3.66667 2C2.748 2 2 2.748 2 3.66667V27C2 28.6547 3.34533 30 5 30H23.0027C22.3733 29.164 22 28.124 22 27V3.66667C22 2.748 21.252 2 20.3333 2H3.66667Z" fill="#951FCC"/>
<path d="M11 12H4.99999C4.44799 12 3.99999 11.552 3.99999 11V5C3.99999 4.448 4.44799 4 4.99999 4H11C11.552 4 12 4.448 12 5V11C12 11.552 11.552 12 11 12ZM5.99999 10H9.99999V6H5.99999V10Z" fill="#951FCC"/>
<path d="M19 7.33333H15.6666C15.1146 7.33333 14.6666 6.88533 14.6666 6.33333C14.6666 5.78133 15.1146 5.33333 15.6666 5.33333H19C19.552 5.33333 20 5.78133 20 6.33333C20 6.88533 19.552 7.33333 19 7.33333Z" fill="#951FCC"/>
<path d="M19 11.3333H15.6666C15.1146 11.3333 14.6666 10.8853 14.6666 10.3333C14.6666 9.78133 15.1146 9.33333 15.6666 9.33333H19C19.552 9.33333 20 9.78133 20 10.3333C20 10.8853 19.552 11.3333 19 11.3333Z" fill="#951FCC"/>
<path d="M19 16.6667H4.99999C4.44799 16.6667 3.99999 16.2187 3.99999 15.6667C3.99999 15.1147 4.44799 14.6667 4.99999 14.6667H19C19.552 14.6667 20 15.1147 20 15.6667C20 16.2187 19.552 16.6667 19 16.6667Z" fill="#951FCC"/>
<path d="M19 21.6667H4.99999C4.44799 21.6667 3.99999 21.2187 3.99999 20.6667C3.99999 20.1147 4.44799 19.6667 4.99999 19.6667H19C19.552 19.6667 20 20.1147 20 20.6667C20 21.2187 19.552 21.6667 19 21.6667Z" fill="#951FCC"/>
<path d="M19 26.6667H4.99999C4.44799 26.6667 3.99999 26.2187 3.99999 25.6667C3.99999 25.1147 4.44799 24.6667 4.99999 24.6667H19C19.552 24.6667 20 25.1147 20 25.6667C20 26.2187 19.552 26.6667 19 26.6667Z" fill="#951FCC"/>
</svg>
